<?xml version="1.0" standalone="no"?>
<!DOCTYPE svg PUBLIC "-//W3C//DTD SVG 20010904//EN"
 "http://www.w3.org/TR/2001/REC-SVG-20010904/DTD/svg10.dtd">
<svg version="1.0" xmlns="http://www.w3.org/2000/svg"
 width="1460.000000pt" height="690.000000pt" viewBox="0 0 1460.000000 690.000000"
 preserveAspectRatio="xMidYMid meet">

<g transform="translate(0.000000,690.000000) scale(0.100000,-0.100000)"
fill="#000000" stroke="none">
<path d="M1352 5576 c-96 -95 -173 -179 -172 -188 0 -17 26 -18 400 -18 l400
0 2 -1332 3 -1333 662 -3 663 -2 2 -422 c2 -304 6 -422 14 -425 11 -4 327 245
369 291 20 21 20 32 15 471 l-5 450 -672 3 -673 2 -2 1338 -3 1337 -415 1
-415 1 -173 -171z"/>
<path d="M8962 5594 c-124 -119 -162 -162 -160 -178 3 -21 5 -21 390 -24 l388
-2 2 -1772 c2 -1285 6 -1772 14 -1775 6 -2 95 74 198 168 l186 172 -2 1781 -3
1781 -425 3 -426 2 -162 -156z"/>
<path d="M12424 4840 l-1031 -5 -64 -61 c-35 -34 -215 -200 -399 -368 -191
-175 -335 -314 -335 -324 0 -16 66 -17 1048 -20 l1047 -2 363 327 c199 179
388 350 420 380 65 60 70 85 15 81 -18 -2 -497 -5 -1064 -8z m666 -145 c11
-10 20 -26 20 -35 0 -46 -101 -87 -173 -70 -42 9 -77 35 -77 57 0 19 46 61 73
67 48 10 136 0 157 -19z m-809 -151 c42 -38 43 -52 7 -88 -69 -69 -230 -66
-268 4 -33 62 51 113 173 106 48 -2 74 -9 88 -22z m-931 -176 c25 -13 52 -35
60 -50 13 -25 13 -29 -6 -55 -11 -15 -42 -39 -68 -52 -129 -65 -330 1 -288 93
34 76 206 112 302 64z"/>
<path d="M13140 4398 c-223 -204 -408 -380 -413 -391 -4 -10 -6 -497 -5 -1080
3 -993 4 -1062 20 -1065 15 -3 390 344 746 691 l102 100 0 1043 c0 573 -3
1049 -6 1058 -3 9 -14 16 -23 16 -9 -1 -198 -168 -421 -372z m255 -24 c49 -19
69 -177 30 -242 -39 -65 -82 -46 -105 47 -16 66 -1 139 38 184 17 20 15 19 37
11z m-367 -1654 c45 -87 16 -271 -45 -286 -75 -19 -121 172 -67 279 25 50 35
58 63 55 19 -2 32 -15 49 -48z"/>
<path d="M4478 4247 c-110 -100 -157 -149 -157 -164 l-1 -23 295 0 295 0 0
-683 c0 -518 3 -686 12 -695 17 -17 769 -17 786 0 17 17 17 349 0 366 -9 9
-70 12 -215 12 l-203 0 -2 663 -3 662 -325 2 -325 3 -157 -143z"/>
<path d="M7708 4383 c-1 -5 -69 -71 -150 -147 -85 -80 -148 -148 -148 -158 0
-17 27 -18 623 -16 l622 3 0 160 0 160 -472 3 c-259 1 -473 -1 -475 -5z"/>
<path d="M6048 4224 c-107 -99 -168 -162 -168 -174 0 -19 9 -20 315 -20 l315
0 2 -1067 c3 -940 5 -1068 18 -1071 8 -1 82 64 165 145 l150 148 -3 1098 -2
1097 -313 0 -312 0 -167 -156z"/>
<path d="M10503 3973 c-10 -4 -13 -229 -13 -1079 l0 -1074 23 -5 c12 -3 496
-4 1075 -3 923 3 1054 5 1062 18 6 9 10 421 10 1067 0 943 -2 1053 -16 1067
-14 14 -124 16 -1072 15 -581 0 -1063 -3 -1069 -6z m1223 -743 c117 -57 179
-164 172 -295 -9 -173 -139 -295 -316 -295 -121 0 -233 74 -285 189 -32 69
-30 178 4 252 78 167 260 231 425 149z"/>
<path d="M8050 3260 c-7 -12 -9 -118 -8 -302 l3 -283 294 -3 c208 -2 298 1
307 9 11 9 14 66 14 289 0 153 -3 285 -6 294 -5 14 -41 16 -300 16 -281 0
-294 -1 -304 -20z"/>
</g>
</svg>
