<?xml version="1.0" standalone="no"?>
<!DOCTYPE svg PUBLIC "-//W3C//DTD SVG 20010904//EN"
 "http://www.w3.org/TR/2001/REC-SVG-20010904/DTD/svg10.dtd">
<svg version="1.0" xmlns="http://www.w3.org/2000/svg"
 width="1460.000000pt" height="690.000000pt" viewBox="0 0 1460.000000 690.000000"
 preserveAspectRatio="xMidYMid meet">

<g transform="translate(0.000000,690.000000) scale(0.100000,-0.100000)"
fill="#000000" stroke="none">
<path d="M0 3450 l0 -3450 7300 0 7300 0 0 3450 0 3450 -7300 0 -7300 0 0
-3450z m2338 2267 c8 -9 12 -399 14 -1324 3 -1273 4 -1312 22 -1332 19 -21 22
-21 640 -21 342 0 631 -3 642 -6 43 -12 45 -34 38 -451 l-7 -393 -160 -153
c-87 -83 -164 -154 -169 -156 -6 -2 -14 3 -19 10 -5 8 -9 194 -9 414 1 372 0
401 -17 413 -14 10 -146 12 -652 12 -455 -1 -637 2 -645 10 -8 8 -12 368 -16
1298 -5 1211 -6 1289 -23 1315 l-17 27 -411 0 c-324 0 -410 3 -407 13 3 6 67
66 144 132 76 66 157 139 179 162 l40 43 411 0 c327 0 414 -3 422 -13z m7617
-22 l24 -30 1 -1726 0 -1726 -22 -28 c-11 -15 -44 -48 -71 -74 -28 -25 -82
-75 -120 -111 -100 -94 -141 -130 -148 -130 -4 0 -9 10 -13 22 -3 13 -6 780
-6 1705 0 1650 0 1684 -20 1735 -11 28 -25 55 -32 60 -7 4 -173 8 -369 8 -405
0 -400 -1 -321 71 26 23 90 81 142 129 162 147 93 131 542 128 l388 -3 25 -30z
m-8869 -429 c19 -14 19 -46 24 -1748 l5 -1733 1026 -5 c849 -4 1029 -7 1042
-19 23 -18 21 -58 -2 -71 -13 -7 -366 -10 -1074 -10 -1024 0 -1055 1 -1078 19
l-24 19 0 1767 c0 1737 0 1767 19 1781 25 18 37 18 62 0z m12402 -444 c-2 -10
-77 -85 -168 -167 -91 -83 -172 -157 -181 -165 -8 -8 -56 -51 -105 -96 -49
-44 -149 -135 -223 -202 l-134 -122 -651 0 c-358 0 -823 3 -1033 7 -359 6
-383 7 -383 24 0 10 6 22 14 26 11 6 158 140 246 223 9 8 99 91 200 185 102
93 203 186 225 206 22 21 52 47 68 59 27 22 29 22 770 29 1349 14 1359 14
1355 -7z m90 -627 c2 -303 0 -773 -3 -1045 l-7 -495 -102 -100 c-56 -55 -145
-140 -197 -190 -52 -49 -182 -173 -288 -275 -205 -196 -228 -216 -239 -205 -4
4 -7 483 -7 1065 l0 1058 30 27 c17 15 50 46 75 69 63 56 251 228 270 246 9 8
36 33 61 55 113 101 238 216 303 277 39 37 78 67 86 65 13 -2 15 -73 18 -552z
m-4940 38 l2 -163 -604 0 c-333 0 -607 4 -610 9 -5 8 219 225 298 288 l41 33
435 -3 435 -2 3 -162z m-3392 122 l29 -25 5 -618 c5 -570 6 -620 23 -645 l17
-27 178 0 c125 0 182 -4 190 -12 18 -18 17 -322 -2 -337 -9 -8 -113 -11 -361
-9 l-348 3 -19 26 c-19 25 -20 54 -25 677 -4 358 -9 656 -13 661 -4 7 -113 13
-298 17 -161 4 -294 10 -296 13 -2 3 24 30 58 60 33 30 96 86 139 124 143 129
100 117 417 117 l277 0 29 -25z m1556 -4 l33 -29 3 -1039 c1 -571 0 -1051 -3
-1068 -3 -18 -31 -57 -72 -100 -150 -159 -196 -205 -204 -205 -5 0 -9 10 -10
23 0 12 -3 47 -5 77 -3 30 -8 480 -12 1000 -7 988 -7 986 -51 1009 -12 7 -121
11 -300 11 -203 0 -282 3 -287 12 -7 11 19 38 216 218 143 131 106 120 402
120 l258 0 32 -29z m5836 -393 c9 -9 12 -258 12 -1060 0 -1027 0 -1047 -19
-1058 -14 -7 -358 -9 -1073 -8 l-1053 3 -3 1055 c-1 580 0 1061 3 1068 6 17
2115 18 2133 0z m-5280 -30 c9 -9 12 -259 12 -1063 0 -804 3 -1054 12 -1063 9
-9 253 -12 1037 -12 l1025 0 23 -22 c27 -26 28 -35 6 -60 -15 -17 -62 -18
-1089 -18 l-1073 0 -21 22 c-20 22 -20 29 -20 1105 0 1070 0 1083 20 1103 23
23 50 26 68 8z m-3144 -28 l26 -10 0 -1039 c0 -1018 0 -1041 19 -1051 13 -7
363 -10 1063 -10 928 0 1046 -2 1066 -16 24 -17 29 -53 10 -72 -9 -9 -271 -12
-1119 -12 l-1108 0 -15 22 c-14 20 -16 139 -16 1084 0 1059 0 1061 21 1088 24
30 20 29 53 16z m4157 -640 c17 -10 19 -22 19 -110 0 -61 4 -101 11 -106 6 -3
53 -6 105 -5 140 3 134 11 134 -179 0 -87 -3 -165 -6 -174 -5 -14 -38 -16
-265 -16 -253 0 -258 0 -283 23 l-26 22 -1 267 c0 147 2 272 6 278 8 13 280
13 306 0z"/>
<path d="M12944 4759 c-23 -5 -57 -24 -77 -43 -31 -28 -37 -40 -37 -74 0 -34
5 -44 31 -63 66 -47 218 -7 257 68 47 88 -38 142 -174 112z"/>
<path d="M12070 4593 c-85 -30 -150 -98 -150 -157 0 -42 50 -88 101 -95 149
-21 299 62 299 165 0 41 -15 62 -67 92 -31 16 -128 14 -183 -5z"/>
<path d="M11195 4441 c-83 -22 -163 -81 -189 -140 -23 -51 -15 -85 29 -127
101 -95 369 -17 415 121 14 43 -7 95 -52 127 -33 23 -147 34 -203 19z"/>
<path d="M13354 4321 c-43 -35 -64 -94 -64 -180 0 -89 19 -137 66 -161 37 -21
73 2 107 69 36 72 39 185 6 237 -34 56 -76 68 -115 35z"/>
<path d="M12930 2793 c-56 -21 -91 -93 -97 -198 -6 -93 6 -149 42 -187 49 -53
114 -28 156 58 40 83 29 264 -19 307 -20 18 -61 28 -82 20z"/>
<path d="M11490 3274 c-88 -29 -164 -94 -208 -178 -22 -44 -26 -64 -27 -141 0
-76 4 -98 24 -140 35 -70 94 -130 164 -165 52 -26 71 -30 141 -30 97 0 159 25
232 92 71 65 98 132 98 243 0 78 -4 97 -27 143 -36 69 -93 125 -160 156 -45
22 -68 26 -138 25 -46 0 -91 -3 -99 -5z"/>
</g>
</svg>
